<svg width="45" height="45" viewBox="0 0 45 45" fill="none" xmlns="http://www.w3.org/2000/svg">
<path d="M31.973 12.3887C30.7411 11.1443 29.2738 10.1577 27.6566 9.48642C26.0395 8.8151 24.3048 8.4725 22.5538 8.4786C15.2174 8.4786 9.23802 14.4579 9.23802 21.7944C9.23802 24.1458 9.85611 26.4301 11.0117 28.4456L9.13052 35.3521L16.1848 33.4978C18.1331 34.5593 20.3233 35.1237 22.5538 35.1237C29.8903 35.1237 35.8697 29.1443 35.8697 21.8078C35.8697 18.2471 34.4857 14.9014 31.973 12.3887ZM22.5538 32.8663C20.5652 32.8663 18.6169 32.3288 16.9104 31.3211L16.5073 31.0792L12.315 32.181L13.4303 28.0962L13.1615 27.6797C12.0567 25.9154 11.47 23.8761 11.4685 21.7944C11.4685 15.6941 16.4401 10.7225 22.5404 10.7225C25.4965 10.7225 28.2779 11.8781 30.3606 13.9742C31.3918 15.0007 32.2091 16.2217 32.7649 17.5664C33.3208 18.9111 33.6043 20.3528 33.5988 21.8078C33.6257 27.9081 28.6541 32.8663 22.5538 32.8663ZM28.6272 24.5893C28.2913 24.428 26.652 23.6218 26.3564 23.5009C26.0474 23.3934 25.8324 23.3396 25.604 23.6621C25.3756 23.998 24.744 24.7505 24.5559 24.9655C24.3678 25.1939 24.1662 25.2208 23.8303 25.0461C23.4944 24.8849 22.4195 24.5221 21.1564 23.3934C20.1621 22.5066 19.5037 21.4182 19.3021 21.0823C19.114 20.7463 19.2753 20.5717 19.4499 20.397C19.5977 20.2492 19.7859 20.0073 19.9471 19.8192C20.1083 19.6311 20.1755 19.4833 20.283 19.2683C20.3905 19.0399 20.3368 18.8518 20.2562 18.6905C20.1755 18.5293 19.5037 16.89 19.235 16.2182C18.9662 15.5732 18.6841 15.6538 18.4825 15.6404H17.8375C17.6091 15.6404 17.2598 15.721 16.9507 16.0569C16.6551 16.3928 15.7952 17.199 15.7952 18.8383C15.7952 20.4776 16.991 22.0631 17.1523 22.2781C17.3135 22.5066 19.5037 25.8657 22.836 27.3035C23.6288 27.6528 24.2469 27.8544 24.7306 28.0022C25.5234 28.2575 26.2489 28.2172 26.8267 28.1366C27.4717 28.0425 28.8019 27.3304 29.0707 26.551C29.3528 25.7717 29.3528 25.1133 29.2588 24.9655C29.1647 24.8177 28.9632 24.7505 28.6272 24.5893Z" fill="white"/>
<circle cx="22.5" cy="22.5" r="21.5" stroke="white" stroke-width="2"/>
</svg>
