<svg width="488" height="105" viewBox="0 0 488 105" fill="none" xmlns="http://www.w3.org/2000/svg">
<path d="M198.005 90.4824V77.9653H199.35V83.992L205.272 77.9653H207.138L200.938 84.2238L208.019 90.4824H205.945L199.35 84.4556V90.4824H198.005ZM214.096 90.8301C212.852 90.8301 211.797 90.5481 210.932 89.9841C210.066 89.42 209.406 88.6396 208.95 87.6429C208.494 86.6461 208.266 85.4987 208.266 84.2007C208.266 82.8949 208.498 81.7475 208.962 80.7585C209.425 79.7617 210.09 78.9891 210.955 78.4405C211.828 77.8919 212.875 77.6176 214.096 77.6176C215.34 77.6176 216.395 77.8996 217.26 78.4636C218.133 79.02 218.794 79.7926 219.242 80.7816C219.698 81.7706 219.926 82.9103 219.926 84.2007C219.926 85.5219 219.698 86.6809 219.242 87.6777C218.786 88.6667 218.121 89.4393 217.248 89.9956C216.375 90.552 215.324 90.8301 214.096 90.8301ZM214.096 89.532C215.572 89.532 216.673 89.0375 217.399 88.0485C218.133 87.0595 218.5 85.7769 218.5 84.2007C218.5 82.5935 218.133 81.3109 217.399 80.3528C216.665 79.3947 215.564 78.9156 214.096 78.9156C213.099 78.9156 212.276 79.1436 211.627 79.5995C210.978 80.0476 210.491 80.6696 210.167 81.4654C209.85 82.2536 209.692 83.1653 209.692 84.2007C209.692 85.8078 210.063 87.0982 210.804 88.0717C211.554 89.0453 212.651 89.532 214.096 89.532ZM225.647 90.4824V79.2402H221.116V77.9653H231.512V79.2402H226.98V90.4824H225.647ZM237.192 90.4824V79.2402H232.66V77.9653H243.056V79.2402H238.525V90.4824H237.192ZM250.406 90.8301C249.208 90.8301 248.173 90.5636 247.299 90.0304C246.426 89.4895 245.75 88.7285 245.271 87.7472C244.792 86.7582 244.553 85.5915 244.553 84.247C244.553 82.8794 244.788 81.7011 245.26 80.7121C245.739 79.7154 246.411 78.9504 247.276 78.4173C248.149 77.8841 249.185 77.6176 250.382 77.6176C251.595 77.6176 252.631 77.8957 253.489 78.452C254.354 79.0006 255.011 79.7965 255.459 80.8396C255.915 81.8827 256.131 83.1383 256.108 84.6063H254.717V84.1427C254.678 82.4274 254.292 81.1216 253.558 80.2253C252.824 79.329 251.773 78.8809 250.406 78.8809C248.992 78.8809 247.898 79.3483 247.126 80.2833C246.361 81.2105 245.978 82.524 245.978 84.2238C245.978 85.9083 246.361 87.2141 247.126 88.1413C247.898 89.0684 248.984 89.532 250.382 89.532C251.348 89.532 252.19 89.308 252.909 88.8598C253.635 88.404 254.211 87.7549 254.636 86.9127L255.841 87.4459C255.339 88.5276 254.613 89.3621 253.662 89.9493C252.712 90.5365 251.626 90.8301 250.406 90.8301ZM245.468 84.6063V83.401H255.354V84.6063H245.468ZM257.744 93.264V89.2655C258.463 89.2655 258.981 89.0375 259.297 88.5817C259.622 88.1258 259.885 87.4111 260.086 86.4375C260.217 85.7885 260.325 85.0854 260.41 84.3282C260.503 83.5709 260.58 82.6824 260.642 81.6625C260.711 80.6426 260.781 79.4102 260.85 77.9653H268.778V89.2655H269.949V93.264H268.651V90.4824H259.054V93.264H257.744ZM260.352 89.2655H267.434V79.1822H262.137C262.106 79.8158 262.067 80.4919 262.021 81.2105C261.975 81.9213 261.921 82.6322 261.859 83.343C261.797 84.0539 261.724 84.7222 261.639 85.3481C261.554 85.9739 261.453 86.5148 261.337 86.9707C261.214 87.4884 261.082 87.9404 260.943 88.3267C260.804 88.713 260.607 89.026 260.352 89.2655ZM270.885 90.4824L276.402 84.2238L271.094 77.9653H272.624L277.851 84.1891V77.9653H279.126V84.1891L284.353 77.9653H285.894L280.586 84.2238L286.103 90.4824H284.527L279.126 84.2586V90.4824H277.851V84.2586L272.462 90.4824H270.885ZM287.963 90.4824V77.9653H289.296V83.5748H296.841V77.9653H298.174V90.4824H296.841V84.8729H289.296V90.4824H287.963ZM301.421 90.4824L301.41 77.9653H302.766V82.8562H305.188C305.559 82.8562 305.903 82.864 306.219 82.8794C306.544 82.8949 306.841 82.9296 307.112 82.9837C307.699 83.0919 308.228 83.2851 308.7 83.5632C309.179 83.8414 309.557 84.2316 309.835 84.7338C310.121 85.236 310.264 85.8812 310.264 86.6693C310.264 87.7279 309.99 88.5585 309.441 89.1612C308.893 89.7638 308.228 90.1502 307.448 90.3202C307.123 90.3897 306.787 90.4361 306.44 90.4592C306.1 90.4747 305.748 90.4824 305.385 90.4824H301.421ZM302.766 89.2655H305.211C305.497 89.2655 305.821 89.2578 306.185 89.2423C306.548 89.2268 306.865 89.1843 307.135 89.1148C307.568 88.9835 307.962 88.7401 308.317 88.3846C308.68 88.0292 308.862 87.4574 308.862 86.6693C308.862 85.8967 308.688 85.3249 308.34 84.954C308 84.5754 307.537 84.3282 306.95 84.2123C306.687 84.1504 306.401 84.1118 306.092 84.0964C305.791 84.0809 305.497 84.0732 305.211 84.0732H302.766V89.2655ZM311.829 90.4824V77.9653H313.162V90.4824H311.829ZM321.413 76.4586C320.895 76.4586 320.42 76.3311 319.987 76.0761C319.562 75.8211 319.222 75.4812 318.967 75.0562C318.72 74.6312 318.597 74.1599 318.597 73.6422H319.756C319.756 74.0904 319.918 74.4806 320.242 74.8128C320.575 75.1373 320.965 75.2996 321.413 75.2996C321.876 75.2996 322.267 75.1373 322.583 74.8128C322.908 74.4806 323.07 74.0904 323.07 73.6422H324.229C324.229 74.1599 324.102 74.6312 323.847 75.0562C323.6 75.4812 323.26 75.8211 322.827 76.0761C322.402 76.3311 321.931 76.4586 321.413 76.4586ZM326.06 77.9653V90.4824H324.751V80.2021L317.588 90.4824H316.418V77.9653H317.727V88.1992L324.89 77.9653H326.06ZM333.938 90.4824V77.9653H343.581V90.4824H342.248V79.2633H335.271V90.4824H333.938ZM351.953 90.8301C350.709 90.8301 349.654 90.5481 348.789 89.9841C347.924 89.42 347.263 88.6396 346.807 87.6429C346.351 86.6461 346.123 85.4987 346.123 84.2007C346.123 82.8949 346.355 81.7475 346.819 80.7585C347.282 79.7617 347.947 78.9891 348.812 78.4405C349.685 77.8919 350.732 77.6176 351.953 77.6176C353.197 77.6176 354.252 77.8996 355.117 78.4636C355.99 79.02 356.651 79.7926 357.099 80.7816C357.555 81.7706 357.783 82.9103 357.783 84.2007C357.783 85.5219 357.555 86.6809 357.099 87.6777C356.643 88.6667 355.979 89.4393 355.105 89.9956C354.232 90.552 353.181 90.8301 351.953 90.8301ZM351.953 89.532C353.429 89.532 354.53 89.0375 355.256 88.0485C355.99 87.0595 356.357 85.7769 356.357 84.2007C356.357 82.5935 355.99 81.3109 355.256 80.3528C354.522 79.3947 353.421 78.9156 351.953 78.9156C350.956 78.9156 350.133 79.1436 349.484 79.5995C348.835 80.0476 348.348 80.6696 348.024 81.4654C347.707 82.2536 347.549 83.1653 347.549 84.2007C347.549 85.8078 347.92 87.0982 348.661 88.0717C349.411 89.0453 350.508 89.532 351.953 89.532ZM365.444 90.8301C364.192 90.8301 363.137 90.552 362.28 89.9956C361.422 89.4316 360.769 88.6551 360.321 87.6661C359.881 86.6693 359.653 85.5219 359.637 84.2238C359.653 82.9026 359.885 81.7475 360.333 80.7585C360.789 79.7617 361.445 78.9891 362.303 78.4405C363.161 77.8919 364.211 77.6176 365.455 77.6176C366.669 77.6176 367.735 77.9112 368.654 78.4984C369.581 79.0779 370.223 79.8776 370.578 80.8975L369.28 81.3727C368.963 80.5923 368.465 79.9897 367.785 79.5647C367.105 79.132 366.325 78.9156 365.444 78.9156C364.455 78.9156 363.64 79.1436 362.998 79.5995C362.357 80.0476 361.878 80.6696 361.561 81.4654C361.244 82.2613 361.078 83.1808 361.063 84.2238C361.086 85.8233 361.461 87.1097 362.187 88.0833C362.921 89.0491 364.007 89.532 365.444 89.532C366.332 89.532 367.101 89.3273 367.75 88.9178C368.407 88.5083 368.909 87.9133 369.257 87.1329L370.578 87.5849C370.091 88.6435 369.411 89.4509 368.538 90.0072C367.665 90.5558 366.634 90.8301 365.444 90.8301ZM379.476 75.3575V73.7349H381.099V75.3575H379.476ZM375.176 75.3575V73.7349H376.799V75.3575H375.176ZM378.167 90.8301C376.969 90.8301 375.934 90.5636 375.061 90.0304C374.187 89.4895 373.511 88.7285 373.032 87.7472C372.553 86.7582 372.314 85.5915 372.314 84.247C372.314 82.8794 372.549 81.7011 373.021 80.7121C373.5 79.7154 374.172 78.9504 375.037 78.4173C375.911 77.8841 376.946 77.6176 378.144 77.6176C379.357 77.6176 380.392 77.8957 381.25 78.452C382.115 79.0006 382.772 79.7965 383.22 80.8396C383.676 81.8827 383.892 83.1383 383.869 84.6063H382.478V84.1427C382.44 82.4274 382.053 81.1216 381.319 80.2253C380.585 79.329 379.534 78.8809 378.167 78.8809C376.753 78.8809 375.659 79.3483 374.887 80.2833C374.122 81.2105 373.739 82.524 373.739 84.2238C373.739 85.9083 374.122 87.2141 374.887 88.1413C375.659 89.0684 376.745 89.532 378.144 89.532C379.109 89.532 379.952 89.308 380.67 88.8598C381.396 88.404 381.972 87.7549 382.397 86.9127L383.602 87.4459C383.1 88.5276 382.374 89.3621 381.423 89.9493C380.473 90.5365 379.388 90.8301 378.167 90.8301ZM373.229 84.6063V83.401H383.116V84.6063H373.229ZM385.274 90.4824V89.2771C385.745 89.3621 386.1 89.3389 386.34 89.2075C386.58 89.0684 386.753 88.8444 386.862 88.5353C386.977 88.2185 387.07 87.836 387.14 87.3879C387.271 86.6152 387.387 85.773 387.487 84.8613C387.588 83.9418 387.681 82.918 387.766 81.79C387.851 80.6541 387.936 79.3792 388.021 77.9653H396.307V90.4824H394.963V79.2633H389.319C389.257 80.1905 389.187 81.0907 389.11 81.9638C389.04 82.8369 388.963 83.6675 388.878 84.4556C388.801 85.236 388.716 85.9507 388.623 86.5998C388.538 87.2411 388.445 87.7974 388.345 88.2687C388.229 88.8869 388.071 89.3852 387.87 89.7638C387.677 90.1347 387.379 90.382 386.977 90.5056C386.576 90.6292 386.008 90.6215 385.274 90.4824ZM404.696 90.8301C403.452 90.8301 402.398 90.5481 401.532 89.9841C400.667 89.42 400.006 88.6396 399.55 87.6429C399.094 86.6461 398.867 85.4987 398.867 84.2007C398.867 82.8949 399.098 81.7475 399.562 80.7585C400.026 79.7617 400.69 78.9891 401.555 78.4405C402.429 77.8919 403.475 77.6176 404.696 77.6176C405.94 77.6176 406.995 77.8996 407.86 78.4636C408.733 79.02 409.394 79.7926 409.842 80.7816C410.298 81.7706 410.526 82.9103 410.526 84.2007C410.526 85.5219 410.298 86.6809 409.842 87.6777C409.386 88.6667 408.722 89.4393 407.849 89.9956C406.976 90.552 405.925 90.8301 404.696 90.8301ZM404.696 89.532C406.172 89.532 407.273 89.0375 407.999 88.0485C408.733 87.0595 409.1 85.7769 409.1 84.2007C409.1 82.5935 408.733 81.3109 407.999 80.3528C407.265 79.3947 406.164 78.9156 404.696 78.9156C403.7 78.9156 402.877 79.1436 402.228 79.5995C401.579 80.0476 401.092 80.6696 400.767 81.4654C400.451 82.2536 400.292 83.1653 400.292 84.2007C400.292 85.8078 400.663 87.0982 401.405 88.0717C402.154 89.0453 403.251 89.532 404.696 89.532ZM413.076 90.4824V77.9653H414.42V83.992L420.343 77.9653H422.209L416.008 84.2238L423.09 90.4824H421.015L414.42 84.4556V90.4824H413.076Z" fill="white"/>
<path d="M136.981 49.8921V56.4497H132.325V45.7104H133.275C134.891 45.6154 136.221 44.9501 137.267 43.7146C138.344 42.4475 139.215 40.8794 139.88 39.0103C140.545 37.1095 141.052 35.0345 141.401 32.7853C141.749 30.5044 141.987 28.3027 142.113 26.1802C142.272 24.0577 142.351 22.1411 142.351 20.4304C142.383 18.6881 142.43 17.4209 142.494 16.6289H168.914V45.7104H173.618V56.4497H168.962V49.8921H136.981ZM147.008 20.8106C146.913 22.7113 146.802 24.8022 146.675 27.0831C146.549 29.3323 146.295 31.5973 145.915 33.8782C145.535 36.1275 144.996 38.2817 144.299 40.3408C143.634 42.4 142.7 44.1898 141.496 45.7104H164.257V20.8106H147.008ZM214.126 16.6289V49.8921H209.517V20.8106H190.604L189.559 36.1116C189.337 39.1845 188.862 41.6397 188.133 43.477C187.405 45.2828 186.486 46.6608 185.377 47.6112C184.268 48.5616 182.985 49.1793 181.528 49.4644C180.103 49.7495 178.582 49.8921 176.966 49.8921V45.5204C178.582 45.5204 179.865 45.3144 180.815 44.9026C181.797 44.4591 182.558 43.8414 183.096 43.0494C183.666 42.2257 184.062 41.2278 184.284 40.0557C184.506 38.8836 184.696 37.553 184.854 36.0641L186.328 16.6289H214.126ZM253.606 16.6289V49.8921H248.95V37.7273H231.605L224.715 49.8446H219.345L226.711 37.1095C224.62 36.4759 222.973 35.383 221.769 33.8307C220.597 32.2784 219.963 30.1718 219.868 27.5107C219.868 25.705 220.137 24.1211 220.676 22.7588C221.246 21.3966 222.022 20.272 223.004 19.385C224.018 18.4663 225.238 17.7852 226.663 17.3417C228.089 16.8665 229.673 16.6289 231.415 16.6289H253.606ZM224.81 27.2256C224.81 29.2848 225.428 30.8529 226.663 31.93C227.899 33.0071 229.546 33.5456 231.605 33.5456H248.95V20.8106H231.605C229.546 20.8106 227.899 21.3808 226.663 22.5213C225.428 23.63 224.81 25.1981 224.81 27.2256ZM318.257 39.2954C317.338 43.287 315.311 46.2331 312.174 48.1339C309.038 50.003 305.015 50.9375 300.105 50.9375C297.127 50.9375 294.466 50.5415 292.121 49.7495C289.777 48.9576 287.797 47.8329 286.182 46.3757C284.566 44.8868 283.33 43.0811 282.475 40.9586C281.62 38.836 281.192 36.4443 281.192 33.7832V32.9279C281.192 30.1718 281.62 27.7166 282.475 25.5625C283.33 23.4083 284.566 21.6026 286.182 20.1453C287.797 18.6564 289.777 17.5318 292.121 16.7715C294.466 15.9795 297.127 15.5835 300.105 15.5835C302.639 15.5835 304.936 15.8369 306.995 16.3438C309.086 16.8507 310.891 17.6268 312.412 18.6722C313.964 19.686 315.231 20.969 316.214 22.5213C317.196 24.0735 317.845 25.8951 318.162 27.9859H313.03C312.713 26.7504 312.174 25.6258 311.414 24.6121C310.685 23.5667 309.767 22.6796 308.658 21.951C307.581 21.1907 306.314 20.6205 304.857 20.2403C303.431 19.8285 301.847 19.6226 300.105 19.6226C297.792 19.6226 295.765 19.9711 294.022 20.668C292.28 21.3333 290.823 22.2678 289.65 23.4716C288.478 24.6754 287.591 26.1327 286.989 27.8434C286.419 29.5224 286.134 31.3756 286.134 33.4031C286.134 35.3355 286.419 37.1254 286.989 38.7727C287.591 40.42 288.478 41.8456 289.65 43.0494C290.823 44.2532 292.28 45.2036 294.022 45.9005C295.765 46.5658 297.792 46.8984 300.105 46.8984C303.621 46.8984 306.52 46.2331 308.801 44.9026C311.113 43.5404 312.586 41.6713 313.22 39.2954H318.257ZM357.88 40.1983C357.88 43.6513 356.787 46.1381 354.601 47.6587C352.447 49.1476 349.279 49.8921 345.098 49.8921H323.001V16.6289H343.767C345.636 16.6289 347.315 16.7556 348.804 17.0091C350.325 17.2308 351.623 17.6585 352.701 18.2921C353.778 18.894 354.601 19.7176 355.172 20.7631C355.773 21.7768 356.074 23.0915 356.074 24.7071C356.074 26.4178 355.71 27.8275 354.981 28.9363C354.253 30.0134 353.318 30.8846 352.178 31.5498C354.047 32.2151 355.457 33.213 356.407 34.5435C357.389 35.8424 357.88 37.7273 357.88 40.1983ZM327.658 29.8867H343.339C344.702 29.8867 345.874 29.8233 346.856 29.6966C347.838 29.5699 348.63 29.3323 349.232 28.9838C349.865 28.6353 350.325 28.1602 350.61 27.5582C350.926 26.9247 351.085 26.1327 351.085 25.1823C351.085 24.2319 350.911 23.4716 350.562 22.9014C350.245 22.2995 349.754 21.856 349.089 21.5709C348.456 21.2541 347.648 21.0482 346.666 20.9531C345.684 20.8581 344.543 20.8106 343.244 20.8106H327.658V29.8867ZM327.658 45.7104H345.098C346.713 45.7104 348.028 45.5837 349.042 45.3303C350.055 45.0452 350.831 44.6492 351.37 44.1423C351.94 43.6038 352.32 42.9702 352.51 42.2416C352.732 41.5129 352.843 40.7051 352.843 39.8181C352.843 38.8994 352.748 38.0916 352.558 37.3946C352.368 36.6977 351.988 36.0958 351.418 35.5889C350.847 35.0821 350.039 34.7019 348.994 34.4485C347.98 34.195 346.634 34.0683 344.955 34.0683H327.658V45.7104ZM400.852 33.213C400.852 36.2859 400.376 38.9469 399.426 41.1961C398.476 43.4137 397.145 45.2511 395.434 46.7083C393.724 48.1656 391.68 49.2268 389.304 49.8921C386.929 50.589 384.315 50.9375 381.464 50.9375C378.613 50.9375 375.999 50.5732 373.623 49.8446C371.247 49.0843 369.204 47.9755 367.493 46.5183C365.783 45.0293 364.452 43.1919 363.502 41.0061C362.551 38.7885 362.076 36.2067 362.076 33.2605C362.076 30.251 362.551 27.6216 363.502 25.3724C364.452 23.0915 365.783 21.1907 367.493 19.6701C369.204 18.1495 371.247 17.0091 373.623 16.2488C375.999 15.4885 378.613 15.1083 381.464 15.1083C384.315 15.1083 386.929 15.5043 389.304 16.2963C391.68 17.0883 393.724 18.2446 395.434 19.7652C397.145 21.2858 398.476 23.1707 399.426 25.4199C400.376 27.6691 400.852 30.2668 400.852 33.213ZM367.018 33.3555C367.018 35.5414 367.351 37.4738 368.016 39.1528C368.713 40.8002 369.679 42.194 370.915 43.3345C372.182 44.4433 373.702 45.2986 375.477 45.9005C377.282 46.4707 379.278 46.7558 381.464 46.7558C383.65 46.7558 385.63 46.4707 387.404 45.9005C389.209 45.3303 390.73 44.4908 391.966 43.382C393.233 42.2416 394.199 40.8477 394.864 39.2004C395.561 37.5214 395.91 35.5731 395.91 33.3555C395.91 31.1697 395.561 29.2214 394.864 27.5107C394.199 25.7684 393.233 24.2953 391.966 23.0915C390.73 21.856 389.209 20.9215 387.404 20.2879C385.63 19.6226 383.65 19.29 381.464 19.29C379.278 19.29 377.282 19.6068 375.477 20.2403C373.702 20.8423 372.182 21.7451 370.915 22.9489C369.679 24.1211 368.713 25.5783 368.016 27.3207C367.351 29.063 367.018 31.0746 367.018 33.3555ZM434.921 19.9552L413.586 49.8921H405.602V16.6289H410.259V46.5183L431.595 16.6289H439.578V49.8921H434.921V19.9552ZM460.034 34.0208L449.912 49.8921H444.352L455.947 31.8349L446.348 16.6289H451.908L460.224 29.8391H470.013L479.611 16.6289H485.409L474.479 31.5023L486.312 49.8921H480.657L470.63 34.0208H460.034Z" fill="white"/>
<path fill-rule="evenodd" clip-rule="evenodd" d="M51.2363 1.2521C48.3534 -0.417367 44.7977 -0.417366 41.9148 1.2521L4.63961 22.8378C1.76796 24.5008 -0.00012207 27.5678 -0.00012207 30.8862V74.1063C-0.00012207 77.4247 1.76796 80.4917 4.63961 82.1546L41.9148 103.74C44.7977 105.41 48.3534 105.41 51.2363 103.74L88.5115 82.1546C91.3832 80.4917 93.1513 77.4247 93.1513 74.1063V30.8862C93.1513 27.5678 91.3832 24.5008 88.5115 22.8378L51.2363 1.2521ZM50.0455 10.3693C47.4633 9.29652 44.5602 9.29652 41.9781 10.3693L19.1528 19.8524C16.5778 20.9222 14.5332 22.9711 13.4689 25.5483L3.99726 48.4838C2.9359 51.0539 2.93589 53.9398 3.99726 56.5099L13.4689 79.4455C14.5332 82.0227 16.5778 84.0716 19.1528 85.1414L41.9781 94.6245C44.5602 95.6973 47.4633 95.6973 50.0455 94.6245L72.8708 85.1414C75.4458 84.0716 77.4903 82.0227 78.5546 79.4455L88.0263 56.5099C89.0877 53.9398 89.0877 51.0539 88.0263 48.4838L78.5546 25.5483C77.4903 22.9711 75.4458 20.9222 72.8708 19.8524L50.0455 10.3693Z" fill="white"/>
</svg>
