<svg width="488" height="99" viewBox="0 0 488 99" fill="none" xmlns="http://www.w3.org/2000/svg">
<path d="M121.983 90.1851V77.3124H123.366V83.5103L129.457 77.3124H131.376L124.999 83.7487L132.281 90.1851H130.148L123.366 83.9871V90.1851H121.983ZM138.531 90.5426C137.251 90.5426 136.167 90.2526 135.277 89.6725C134.387 89.0925 133.707 88.2899 133.239 87.2649C132.77 86.2398 132.535 85.0598 132.535 83.7249C132.535 82.382 132.774 81.202 133.251 80.1849C133.727 79.1599 134.411 78.3653 135.301 77.8011C136.199 77.2369 137.275 76.9548 138.531 76.9548C139.81 76.9548 140.895 77.2449 141.785 77.8249C142.683 78.397 143.362 79.1917 143.823 80.2088C144.292 81.2258 144.526 82.3979 144.526 83.7249C144.526 85.0837 144.292 86.2756 143.823 87.3006C143.354 88.3177 142.671 89.1123 141.773 89.6845C140.875 90.2566 139.794 90.5426 138.531 90.5426ZM138.531 89.2077C140.048 89.2077 141.181 88.6991 141.928 87.682C142.683 86.6649 143.06 85.3459 143.06 83.7249C143.06 82.0721 142.683 80.7531 141.928 79.7677C141.173 78.7824 140.04 78.2898 138.531 78.2898C137.506 78.2898 136.659 78.5242 135.992 78.993C135.324 79.4539 134.824 80.0935 134.49 80.912C134.164 81.7225 134.001 82.6601 134.001 83.7249C134.001 85.3777 134.383 86.7047 135.146 87.7059C135.916 88.7071 137.045 89.2077 138.531 89.2077ZM150.41 90.1851V78.6235H145.75V77.3124H156.441V78.6235H151.781V90.1851H150.41ZM162.283 90.1851V78.6235H157.622V77.3124H168.314V78.6235H163.653V90.1851H162.283ZM175.872 90.5426C174.64 90.5426 173.575 90.2685 172.677 89.7202C171.779 89.164 171.084 88.3813 170.591 87.3721C170.099 86.355 169.853 85.1552 169.853 83.7726C169.853 82.3661 170.095 81.1543 170.58 80.1372C171.072 79.1122 171.764 78.3255 172.654 77.7772C173.551 77.229 174.616 76.9548 175.848 76.9548C177.095 76.9548 178.16 77.2409 179.042 77.813C179.932 78.3772 180.608 79.1956 181.068 80.2683C181.537 81.3411 181.76 82.6323 181.736 84.1421H180.306V83.6653C180.266 81.9013 179.869 80.5584 179.114 79.6366C178.359 78.7149 177.278 78.254 175.872 78.254C174.418 78.254 173.293 78.7348 172.499 79.6962C171.712 80.6498 171.319 82.0006 171.319 83.7487C171.319 85.481 171.712 86.8239 172.499 87.7774C173.293 88.7309 174.41 89.2077 175.848 89.2077C176.841 89.2077 177.707 88.9773 178.446 88.5164C179.193 88.0476 179.785 87.3801 180.222 86.514L181.462 87.0622C180.945 88.1747 180.198 89.0329 179.221 89.6368C178.244 90.2407 177.127 90.5426 175.872 90.5426ZM170.794 84.1421V82.9025H180.961V84.1421H170.794ZM183.419 93.0456V88.9336C184.158 88.9336 184.69 88.6991 185.016 88.2303C185.35 87.7615 185.62 87.0265 185.827 86.0253C185.962 85.3578 186.073 84.6347 186.16 83.856C186.256 83.0773 186.335 82.1635 186.399 81.1146C186.47 80.0657 186.542 78.7983 186.613 77.3124H194.766V88.9336H195.97V93.0456H194.635V90.1851H184.766V93.0456H183.419ZM186.101 88.9336H193.383V78.5639H187.936C187.904 79.2155 187.865 79.9108 187.817 80.6498C187.769 81.3808 187.714 82.1118 187.65 82.8429C187.587 83.5739 187.511 84.2613 187.424 84.9049C187.336 85.5485 187.233 86.1047 187.114 86.5736C186.987 87.106 186.852 87.5708 186.709 87.9681C186.566 88.3654 186.363 88.6872 186.101 88.9336ZM196.933 90.1851L202.607 83.7487L197.148 77.3124H198.721L204.097 83.713V77.3124H205.408V83.713L210.783 77.3124H212.368L206.909 83.7487L212.583 90.1851H210.962L205.408 83.7845V90.1851H204.097V83.7845L198.554 90.1851H196.933ZM214.496 90.1851V77.3124H215.867V83.0813H223.626V77.3124H224.997V90.1851H223.626V84.4162H215.867V90.1851H214.496ZM228.336 90.1851L228.324 77.3124H229.719V82.3423H232.21C232.591 82.3423 232.945 82.3502 233.271 82.3661C233.604 82.382 233.91 82.4178 234.188 82.4734C234.792 82.5846 235.337 82.7833 235.821 83.0693C236.314 83.3554 236.703 83.7567 236.989 84.2732C237.283 84.7897 237.43 85.4532 237.43 86.2637C237.43 87.3523 237.148 88.2065 236.584 88.8263C236.02 89.4461 235.337 89.8434 234.534 90.0182C234.2 90.0897 233.855 90.1374 233.497 90.1612C233.147 90.1771 232.786 90.1851 232.412 90.1851H228.336ZM229.719 88.9336H232.234C232.528 88.9336 232.861 88.9256 233.235 88.9097C233.608 88.8938 233.934 88.8501 234.212 88.7786C234.657 88.6435 235.062 88.3932 235.428 88.0277C235.801 87.6622 235.988 87.0742 235.988 86.2637C235.988 85.4691 235.809 84.881 235.452 84.4996C235.102 84.1103 234.625 83.856 234.022 83.7368C233.751 83.6732 233.457 83.6335 233.14 83.6176C232.83 83.6017 232.528 83.5938 232.234 83.5938H229.719V88.9336ZM239.039 90.1851V77.3124H240.41V90.1851H239.039ZM248.896 75.7629C248.363 75.7629 247.875 75.6318 247.43 75.3696C246.993 75.1074 246.643 74.7577 246.381 74.3207C246.126 73.8837 245.999 73.399 245.999 72.8666H247.191C247.191 73.3274 247.358 73.7287 247.692 74.0704C248.034 74.4041 248.435 74.571 248.896 74.571C249.372 74.571 249.774 74.4041 250.1 74.0704C250.433 73.7287 250.6 73.3274 250.6 72.8666H251.792C251.792 73.399 251.661 73.8837 251.399 74.3207C251.144 74.7577 250.795 75.1074 250.35 75.3696C249.913 75.6318 249.428 75.7629 248.896 75.7629ZM253.675 77.3124V90.1851H252.328V79.6128L244.962 90.1851H243.759V77.3124H245.105V87.837L252.471 77.3124H253.675ZM261.777 90.1851V77.3124H271.694V90.1851H270.323V78.6473H263.148V90.1851H261.777ZM280.303 90.5426C279.024 90.5426 277.939 90.2526 277.049 89.6725C276.159 89.0925 275.48 88.2899 275.011 87.2649C274.542 86.2398 274.308 85.0598 274.308 83.7249C274.308 82.382 274.546 81.202 275.023 80.1849C275.5 79.1599 276.183 78.3653 277.073 77.8011C277.971 77.2369 279.048 76.9548 280.303 76.9548C281.582 76.9548 282.667 77.2449 283.557 77.8249C284.455 78.397 285.134 79.1917 285.595 80.2088C286.064 81.2258 286.298 82.3979 286.298 83.7249C286.298 85.0837 286.064 86.2756 285.595 87.3006C285.126 88.3177 284.443 89.1123 283.545 89.6845C282.647 90.2566 281.567 90.5426 280.303 90.5426ZM280.303 89.2077C281.821 89.2077 282.953 88.6991 283.7 87.682C284.455 86.6649 284.832 85.3459 284.832 83.7249C284.832 82.0721 284.455 80.7531 283.7 79.7677C282.945 78.7824 281.813 78.2898 280.303 78.2898C279.278 78.2898 278.432 78.5242 277.764 78.993C277.097 79.4539 276.596 80.0935 276.263 80.912C275.937 81.7225 275.774 82.6601 275.774 83.7249C275.774 85.3777 276.155 86.7047 276.918 87.7059C277.689 88.7071 278.817 89.2077 280.303 89.2077ZM294.177 90.5426C292.89 90.5426 291.805 90.2566 290.923 89.6845C290.041 89.1044 289.37 88.3058 288.909 87.2887C288.456 86.2637 288.222 85.0837 288.206 83.7487C288.222 82.39 288.46 81.202 288.921 80.1849C289.39 79.1599 290.065 78.3653 290.947 77.8011C291.829 77.2369 292.91 76.9548 294.189 76.9548C295.437 76.9548 296.533 77.2568 297.479 77.8607C298.432 78.4566 299.092 79.2791 299.457 80.3279L298.122 80.8166C297.797 80.0141 297.284 79.3943 296.585 78.9572C295.886 78.5123 295.083 78.2898 294.177 78.2898C293.16 78.2898 292.322 78.5242 291.662 78.993C291.003 79.4539 290.51 80.0935 290.184 80.912C289.858 81.7304 289.688 82.676 289.672 83.7487C289.696 85.3936 290.081 86.7166 290.828 87.7178C291.583 88.7111 292.699 89.2077 294.177 89.2077C295.091 89.2077 295.882 88.9971 296.549 88.576C297.225 88.1548 297.741 87.543 298.099 86.7404L299.457 87.2053C298.957 88.2939 298.257 89.1243 297.36 89.6964C296.462 90.2605 295.401 90.5426 294.177 90.5426ZM308.608 74.6306V72.9619H310.277V74.6306H308.608ZM304.186 74.6306V72.9619H305.855V74.6306H304.186ZM307.261 90.5426C306.03 90.5426 304.965 90.2685 304.067 89.7202C303.169 89.164 302.474 88.3813 301.981 87.3721C301.489 86.355 301.242 85.1552 301.242 83.7726C301.242 82.3661 301.485 81.1543 301.969 80.1372C302.462 79.1122 303.153 78.3255 304.043 77.7772C304.941 77.229 306.006 76.9548 307.238 76.9548C308.485 76.9548 309.55 77.2409 310.432 77.813C311.322 78.3772 311.997 79.1956 312.458 80.2683C312.927 81.3411 313.149 82.6323 313.126 84.1421H311.695V83.6653C311.656 81.9013 311.258 80.5584 310.503 79.6366C309.749 78.7149 308.668 78.254 307.261 78.254C305.807 78.254 304.683 78.7348 303.888 79.6962C303.102 80.6498 302.708 82.0006 302.708 83.7487C302.708 85.481 303.102 86.8239 303.888 87.7774C304.683 88.7309 305.799 89.2077 307.238 89.2077C308.231 89.2077 309.097 88.9773 309.836 88.5164C310.583 88.0476 311.175 87.3801 311.612 86.514L312.851 87.0622C312.335 88.1747 311.588 89.0329 310.611 89.6368C309.633 90.2407 308.517 90.5426 307.261 90.5426ZM302.184 84.1421V82.9025H312.351V84.1421H302.184ZM314.57 90.1851V88.9455C315.055 89.0329 315.42 89.009 315.667 88.874C315.913 88.7309 316.092 88.5005 316.203 88.1826C316.322 87.8569 316.418 87.4635 316.489 87.0027C316.624 86.208 316.744 85.3419 316.847 84.4043C316.95 83.4587 317.045 82.4058 317.133 81.2457C317.22 80.0776 317.308 78.7665 317.395 77.3124H325.917V90.1851H324.535V78.6473H318.73C318.666 79.6009 318.595 80.5266 318.515 81.4245C318.444 82.3224 318.365 83.1766 318.277 83.9871C318.198 84.7897 318.11 85.5247 318.015 86.1922C317.927 86.8517 317.832 87.4238 317.729 87.9085C317.61 88.5442 317.447 89.0567 317.24 89.4461C317.041 89.8275 316.736 90.0818 316.322 90.2089C315.909 90.336 315.325 90.3281 314.57 90.1851ZM334.544 90.5426C333.265 90.5426 332.181 90.2526 331.291 89.6725C330.401 89.0925 329.721 88.2899 329.252 87.2649C328.784 86.2398 328.549 85.0598 328.549 83.7249C328.549 82.382 328.788 81.202 329.264 80.1849C329.741 79.1599 330.424 78.3653 331.314 77.8011C332.212 77.2369 333.289 76.9548 334.544 76.9548C335.824 76.9548 336.908 77.2449 337.798 77.8249C338.696 78.397 339.376 79.1917 339.837 80.2088C340.305 81.2258 340.54 82.3979 340.54 83.7249C340.54 85.0837 340.305 86.2756 339.837 87.3006C339.368 88.3177 338.684 89.1123 337.786 89.6845C336.889 90.2566 335.808 90.5426 334.544 90.5426ZM334.544 89.2077C336.062 89.2077 337.194 88.6991 337.941 87.682C338.696 86.6649 339.074 85.3459 339.074 83.7249C339.074 82.0721 338.696 80.7531 337.941 79.7677C337.187 78.7824 336.054 78.2898 334.544 78.2898C333.519 78.2898 332.673 78.5242 332.006 78.993C331.338 79.4539 330.838 80.0935 330.504 80.912C330.178 81.7225 330.015 82.6601 330.015 83.7249C330.015 85.3777 330.397 86.7047 331.159 87.7059C331.93 88.7071 333.059 89.2077 334.544 89.2077ZM343.162 90.1851V77.3124H344.545V83.5103L350.635 77.3124H352.554L346.178 83.7487L353.46 90.1851H351.327L344.545 83.9871V90.1851H343.162Z" fill="white"/>
<path d="M126.612 49.1865V55.9304H121.823V44.8861H122.801C124.462 44.7884 125.831 44.1042 126.906 42.8336C128.013 41.5305 128.909 39.9178 129.593 37.9957C130.278 36.0409 130.799 33.907 131.157 31.5939C131.516 29.2482 131.76 26.984 131.89 24.8012C132.053 22.6184 132.135 20.6474 132.135 18.8881C132.167 17.0963 132.216 15.7931 132.281 14.9786H159.452V44.8861H164.29V55.9304H159.501V49.1865H126.612ZM136.924 19.279C136.826 21.2338 136.712 23.384 136.582 25.7297C136.451 28.0428 136.191 30.3722 135.8 32.7179C135.409 35.031 134.855 37.2463 134.138 39.364C133.454 41.4816 132.493 43.3223 131.255 44.8861H154.663V19.279H136.924ZM205.948 14.9786V49.1865H201.208V19.279H181.758L180.683 35.0147C180.455 38.1748 179.966 40.6997 179.217 42.5893C178.468 44.4463 177.523 45.8635 176.383 46.8408C175.242 47.8182 173.923 48.4535 172.424 48.7467C170.958 49.0399 169.394 49.1865 167.733 49.1865V44.6906C169.394 44.6906 170.714 44.4789 171.691 44.0553C172.701 43.5992 173.483 42.9639 174.037 42.1495C174.623 41.3024 175.031 40.2762 175.259 39.0708C175.487 37.8653 175.682 36.497 175.845 34.9658L177.36 14.9786H205.948ZM246.55 14.9786V49.1865H241.761V36.6762H223.924L216.838 49.1377H211.316L218.89 36.0409C216.74 35.3893 215.046 34.2654 213.808 32.669C212.602 31.0726 211.951 28.9061 211.853 26.1695C211.853 24.3125 212.13 22.6835 212.684 21.2827C213.27 19.8818 214.068 18.7252 215.078 17.813C216.121 16.8682 217.375 16.1678 218.841 15.7117C220.307 15.223 221.936 14.9786 223.728 14.9786H246.55ZM216.935 25.8763C216.935 27.9939 217.571 29.6066 218.841 30.7143C220.112 31.8219 221.806 32.3758 223.924 32.3758H241.761V19.279H223.924C221.806 19.279 220.112 19.8655 218.841 21.0383C217.571 22.1786 216.935 23.7912 216.935 25.8763ZM313.036 38.2889C312.092 42.3938 310.006 45.4237 306.781 47.3784C303.556 49.3005 299.418 50.2616 294.369 50.2616C291.306 50.2616 288.57 49.8544 286.159 49.0399C283.748 48.2254 281.712 47.0689 280.05 45.5703C278.389 44.039 277.118 42.182 276.238 39.9993C275.359 37.8165 274.919 35.3568 274.919 32.6201V31.7405C274.919 28.9061 275.359 26.3813 276.238 24.1659C277.118 21.9505 278.389 20.0935 280.05 18.5949C281.712 17.0637 283.748 15.9071 286.159 15.1252C288.57 14.3108 291.306 13.9035 294.369 13.9035C296.975 13.9035 299.337 14.1642 301.455 14.6854C303.605 15.2067 305.462 16.0049 307.026 17.08C308.622 18.1225 309.925 19.4419 310.935 21.0383C311.945 22.6347 312.613 24.508 312.939 26.6582H307.661C307.335 25.3876 306.781 24.231 305.999 23.1885C305.25 22.1134 304.305 21.2012 303.165 20.4519C302.057 19.67 300.754 19.0836 299.255 18.6926C297.789 18.2691 296.16 18.0573 294.369 18.0573C291.99 18.0573 289.905 18.4157 288.113 19.1324C286.322 19.8166 284.823 20.7777 283.618 22.0157C282.412 23.2537 281.5 24.7523 280.881 26.5116C280.294 28.2383 280.001 30.1441 280.001 32.2292C280.001 34.2165 280.294 36.0572 280.881 37.7513C281.5 39.4454 282.412 40.9115 283.618 42.1495C284.823 43.3875 286.322 44.3648 288.113 45.0816C289.905 45.7657 291.99 46.1078 294.369 46.1078C297.985 46.1078 300.966 45.4237 303.312 44.0553C305.69 42.6544 307.205 40.7323 307.856 38.2889H313.036ZM353.785 39.2174C353.785 42.7685 352.661 45.3259 350.413 46.8897C348.198 48.4209 344.94 49.1865 340.639 49.1865H317.916V14.9786H339.271C341.193 14.9786 342.92 15.1089 344.451 15.3696C346.015 15.5976 347.351 16.0374 348.458 16.689C349.566 17.308 350.413 18.1551 350.999 19.2302C351.618 20.2727 351.928 21.6247 351.928 23.2863C351.928 25.0455 351.553 26.4953 350.804 27.6355C350.055 28.7432 349.094 29.6392 347.921 30.3233C349.843 31.0075 351.293 32.0337 352.27 33.402C353.28 34.7378 353.785 36.6762 353.785 39.2174ZM322.705 28.6129H338.831C340.232 28.6129 341.438 28.5478 342.447 28.4174C343.457 28.2871 344.272 28.0428 344.891 27.6844C345.542 27.326 346.015 26.8374 346.308 26.2184C346.634 25.5668 346.797 24.7523 346.797 23.7749C346.797 22.7976 346.618 22.0157 346.259 21.4293C345.933 20.8103 345.428 20.3542 344.744 20.0609C344.093 19.7352 343.262 19.5234 342.252 19.4257C341.242 19.3279 340.069 19.279 338.733 19.279H322.705V28.6129ZM322.705 44.8861H340.639C342.301 44.8861 343.653 44.7558 344.695 44.4952C345.738 44.2019 346.536 43.7947 347.09 43.2734C347.676 42.7196 348.067 42.068 348.263 41.3187C348.491 40.5694 348.605 39.7386 348.605 38.8264C348.605 37.8816 348.507 37.0509 348.312 36.3341C348.116 35.6174 347.725 34.9984 347.139 34.4771C346.552 33.9559 345.722 33.5649 344.647 33.3043C343.604 33.0437 342.219 32.9133 340.493 32.9133H322.705V44.8861ZM397.977 32.0337C397.977 35.1939 397.488 37.9305 396.511 40.2436C395.533 42.5241 394.165 44.4137 392.406 45.9123C390.647 47.411 388.545 48.5024 386.102 49.1865C383.658 49.9033 380.971 50.2616 378.039 50.2616C375.106 50.2616 372.419 49.887 369.975 49.1377C367.532 48.3558 365.431 47.2155 363.671 45.7169C361.912 44.1857 360.544 42.2961 359.566 40.0481C358.589 37.7676 358.1 35.1124 358.1 32.0826C358.1 28.9876 358.589 26.2835 359.566 23.9704C360.544 21.6247 361.912 19.67 363.671 18.1062C365.431 16.5424 367.532 15.3696 369.975 14.5877C372.419 13.8058 375.106 13.4148 378.039 13.4148C380.971 13.4148 383.658 13.8221 386.102 14.6365C388.545 15.451 390.647 16.6402 392.406 18.2039C394.165 19.7677 395.533 21.7062 396.511 24.0193C397.488 26.3324 397.977 29.0039 397.977 32.0337ZM363.183 32.1803C363.183 34.4283 363.525 36.4156 364.209 38.1423C364.926 39.8364 365.919 41.2698 367.19 42.4427C368.493 43.5829 370.057 44.4626 371.881 45.0816C373.738 45.668 375.791 45.9612 378.039 45.9612C380.287 45.9612 382.323 45.668 384.147 45.0816C386.004 44.4952 387.568 43.6318 388.839 42.4915C390.142 41.3187 391.135 39.8852 391.819 38.1911C392.536 36.4644 392.895 34.4608 392.895 32.1803C392.895 29.9324 392.536 27.9288 391.819 26.1695C391.135 24.3777 390.142 22.8627 388.839 21.6247C387.568 20.3542 386.004 19.3931 384.147 18.7415C382.323 18.0573 380.287 17.7153 378.039 17.7153C375.791 17.7153 373.738 18.041 371.881 18.6926C370.057 19.3116 368.493 20.2401 367.19 21.4781C365.919 22.6835 364.926 24.1822 364.209 25.974C363.525 27.7659 363.183 29.8346 363.183 32.1803ZM433.014 18.3994L411.073 49.1865H402.863V14.9786H407.652V45.7169L429.594 14.9786H437.804V49.1865H433.014V18.3994ZM458.84 32.8645L448.431 49.1865H442.713L454.637 30.6165L444.766 14.9786H450.483L459.035 28.564H469.102L478.974 14.9786H484.936L473.696 30.2744L485.864 49.1865H480.049L469.738 32.8645H458.84Z" fill="white"/>
<path fill-rule="evenodd" clip-rule="evenodd" d="M48.0298 1.16828C45.3318 -0.38943 42.0077 -0.389427 39.3096 1.16829L4.3601 21.3464C1.66206 22.9041 0 25.7829 0 28.8983V69.2546C0 72.37 1.66206 75.2488 4.3601 76.8065L39.3096 96.9846C42.0077 98.5423 45.3318 98.5423 48.0298 96.9846L82.9793 76.8065C85.6774 75.2488 87.3394 72.37 87.3394 69.2546V28.8983C87.3394 25.7829 85.6774 22.9041 82.9793 21.3464L48.0298 1.16828ZM46.9134 9.69241C44.498 8.69193 41.7841 8.69193 39.3687 9.69241L17.9595 18.5604C15.5441 19.5609 13.6251 21.4799 12.6246 23.8953L3.75662 45.3045C2.75614 47.7199 2.75614 50.4338 3.75662 52.8492L12.6246 74.2584C13.6251 76.6738 15.5441 78.5928 17.9595 79.5933L39.3687 88.4613C41.7841 89.4617 44.498 89.4617 46.9134 88.4613L68.3226 79.5933C70.738 78.5928 72.657 76.6738 73.6575 74.2584L82.5255 52.8492C83.5259 50.4338 83.5259 47.7199 82.5255 45.3045L73.6575 23.8953C72.657 21.4799 70.738 19.5609 68.3226 18.5604L46.9134 9.69241Z" fill="white"/>
</svg>
