<svg width="42" height="43" viewBox="0 0 42 43" fill="none" xmlns="http://www.w3.org/2000/svg">
<path d="M0 9.50428C0 4.69639 3.89756 0.798828 8.70545 0.798828H33.2945C38.1024 0.798828 42 4.69639 42 9.50428V34.0934C42 38.9013 38.1024 42.7988 33.2945 42.7988H8.70545C3.89756 42.7988 0 38.9013 0 34.0934V9.50428Z" fill="white"/>
<g filter="url(#filter0_i_4_4667)">
<path d="M16.9096 12.168C13.7883 12.168 11.2486 14.7091 11.2486 17.8312V25.9196C11.2486 29.0413 13.7898 31.5813 16.9118 31.5813H25.0002C28.1219 31.5813 30.6619 29.0401 30.6619 25.9181V17.8289C30.6619 14.7077 28.1207 12.168 24.9987 12.168H16.9096ZM26.7793 15.2741C27.2079 15.2741 27.5558 15.622 27.5558 16.0506C27.5558 16.4793 27.2079 16.8272 26.7793 16.8272C26.3506 16.8272 26.0027 16.4793 26.0027 16.0506C26.0027 15.622 26.3506 15.2741 26.7793 15.2741ZM20.9553 16.8272C23.7391 16.8272 26.0027 19.0908 26.0027 21.8746C26.0027 24.6585 23.7387 26.9221 20.9553 26.9221C18.1714 26.9221 15.9078 24.6581 15.9078 21.8746C15.9078 19.0912 18.1714 16.8272 20.9553 16.8272ZM20.9553 18.3802C19.0252 18.3802 17.4609 19.9446 17.4609 21.8746C17.4609 23.8047 19.0252 25.369 20.9553 25.369C22.8853 25.369 24.4497 23.8047 24.4497 21.8746C24.4497 19.9446 22.8853 18.3802 20.9553 18.3802Z" fill="#1F1F2E"/>
</g>
<defs>
<filter id="filter0_i_4_4667" x="8.5307" y="9.4502" width="24.8491" height="28.8491" filterUnits="userSpaceOnUse" color-interpolation-filters="sRGB">
<feFlood flood-opacity="0" result="BackgroundImageFix"/>
<feBlend mode="normal" in="SourceGraphic" in2="BackgroundImageFix" result="shape"/>
<feColorMatrix in="SourceAlpha" type="matrix" values="0 0 0 0 0 0 0 0 0 0 0 0 0 0 0 0 0 0 127 0" result="hardAlpha"/>
<feOffset dy="4"/>
<feGaussianBlur stdDeviation="7.5"/>
<feComposite in2="hardAlpha" operator="arithmetic" k2="-1" k3="1"/>
<feColorMatrix type="matrix" values="0 0 0 0 0 0 0 0 0 0 0 0 0 0 0 0 0 0 0.2 0"/>
<feBlend mode="normal" in2="shape" result="effect1_innerShadow_4_4667"/>
</filter>
</defs>
</svg>
