<svg width="42" height="43" viewBox="0 0 42 43" fill="none" xmlns="http://www.w3.org/2000/svg">
<path d="M0 9.50428C0 4.69639 3.89756 0.798828 8.70545 0.798828H33.2945C38.1024 0.798828 42 4.69639 42 9.50428V34.0934C42 38.9013 38.1024 42.7988 33.2945 42.7988H8.70545C3.89756 42.7988 0 38.9013 0 34.0934V9.50428Z" fill="white"/>
<path d="M20.9837 10.2783C14.6564 10.2783 9.47949 15.4552 9.47949 21.7825C9.47949 28.1098 14.6564 33.2867 20.9837 33.2867C27.311 33.2867 32.4879 28.1098 32.4879 21.7825C32.4879 15.4552 27.311 10.2783 20.9837 10.2783Z" fill="#1F1F2E"/>
<path d="M21.6739 27.0746C16.497 27.0746 13.5635 23.5658 13.4484 17.6411H16.0369C16.0944 21.9552 18.0501 23.7959 19.5457 24.141V17.6411H21.9615V21.38C23.4571 21.2074 25.0101 19.5393 25.5278 17.6411H27.9437C27.5411 19.942 25.8154 21.6676 24.6075 22.3578C25.8154 22.933 27.7712 24.4286 28.4614 27.0746H25.7579C25.1827 25.2914 23.7447 23.9109 21.8465 23.6808V27.0746H21.6739Z" fill="white"/>
</svg>
